ply
format ascii 1.0
element vertex 110
comment vertices
property float x
property float y
property float z
end_header
-0.48279958963394165 1.94339323043823242 -1.18998610973358154
1.11244761943817139 2.63514924049377441 -1.10154569149017334
0.0514833331108093262 2.73431015014648438 -1.1249622106552124
0.156186878681182861 2.39259219169616699 -1.15340864658355713
0.263494938611984253 3.02480769157409668 -1.12229859828948975
-1.10041487216949463 2.48200130462646484 -1.10551488399505615
-0.285692721605300903 3.91487693786621094 -1.11404299736022949
0.563372552394866943 3.3091888427734375 -1.11815321445465088
0.261472344398498535 2.81086134910583496 -1.17115950584411621
0.196111857891082764 1.36296594142913818 -1.12833309173583984
1.10244357585906982 2.63103389739990234 -1.08225500583648682
-0.058070942759513855 2.62241077423095703 -1.14070332050323486
0.11199091374874115 2.89915275573730469 -1.16034090518951416
0.090972900390625 2.70093750953674316 -1.15456938743591309
-0.229402497410774231 2.20579147338867188 -1.19448661804199219
0.680256247520446777 2.19048762321472168 -1.0949409008026123
-1.0867990255355835 2.48034906387329102 -1.06021606922149658
1.12677741050720215 2.63873291015625 -1.07547593116760254
-0.461205512285232544 2.05075550079345703 -1.17254388332366943
-0.395040452480316162 3.83893513679504395 -1.13422489166259766
0.177736923098564148 1.39272737503051758 -1.12691354751586914
0.762525200843811035 3.53148555755615234 -1.12725198268890381
0.682420074939727783 2.1909329891204834 -1.09985029697418213
-0.32928931713104248 2.38870763778686523 -1.15589296817779541
-0.339233428239822388 1.97588050365447998 -1.20935368537902832
1.10857164859771729 2.66750693321228027 -1.11885166168212891
0.202260658144950867 1.37637913227081299 -1.11163008213043213
0.846183478832244873 2.45459556579589844 -1.08911013603210449
0.106980264186859131 2.80359411239624023 -1.14827275276184082
0.0483776256442070007 2.80923628807067871 -1.1289527416229248
-0.303443789482116699 3.92788219451904297 -1.08492493629455566
-0.023838430643081665 2.96082758903503418 -1.16497492790222168
0.674130737781524658 2.21208786964416504 -1.12147021293640137
1.08916699886322021 2.6466670036315918 -1.06670641899108887
0.0771184265613555908 2.80546665191650391 -1.14666473865509033
-0.34911152720451355 2.12229084968566895 -1.15554749965667725
1.08421659469604492 2.66487812995910645 -1.09837889671325684
0.107545405626296997 2.74810624122619629 -1.15643453598022461
0.771113097667694092 3.5619044303894043 -1.11853122711181641
-0.0459631346166133881 2.35883164405822754 -1.1728971004486084
-1.10197710990905762 2.48031258583068848 -1.11291790008544922
0.694861471652984619 2.19596409797668457 -1.09867739677429199
-0.293590664863586426 3.91148138046264648 -1.12213766574859619
-0.414573341608047485 2.17849612236022949 -1.14136326313018799
0.74491417407989502 3.57767796516418457 -1.13801252841949463
0.120999604463577271 2.93044590950012207 -1.15496242046356201
0.667467594146728516 2.21307659149169922 -1.10619032382965088
-0.354918956756591797 1.97348368167877197 -1.20594596862792969
0.746465921401977539 3.5471806526184082 -1.11372256278991699
-1.10155808925628662 2.48039054870605469 -1.05416190624237061
0.679433465003967285 2.2066338062286377 -1.11431539058685303
0.202581226825714111 1.36397087574005127 -1.1294395923614502
1.10850691795349121 2.63212895393371582 -1.08578252792358398
-0.00240923091769218445 2.15761923789978027 -1.17095708847045898
0.657769203186035156 2.22457385063171387 -1.10316157341003418
0.68023681640625 2.2138054370880127 -1.11266469955444336
0.00773740559816360474 2.82357358932495117 -1.15452146530151367
0.75892484188079834 3.53945207595825195 -1.12186241149902344
-0.046374395489692688 2.60562920570373535 -1.10685610771179199
0.18382580578327179 1.39455127716064453 -1.13571906089782715
-0.802997887134552002 1.8096013069152832 -1.13335871696472168
0.377591401338577271 2.74980950355529785 -1.1227881908416748
0.188036069273948669 2.9449162483215332 -1.15557587146759033
-0.212969541549682617 2.23066306114196777 -1.17370069026947021
0.672700583934783936 2.19573473930358887 -1.10654020309448242
0.683772742748260498 2.1994631290435791 -1.10829031467437744
0.741706192493438721 3.54768729209899902 -1.10855281352996826
-0.124702244997024536 2.40593218803405762 -1.1677776575088501
0.114554531872272491 2.76639890670776367 -1.16200911998748779
-0.151405960321426392 2.47687292098999023 -1.17023718357086182
0.205233484506607056 1.40360832214355469 -1.1084367036819458
1.07132136821746826 2.64188766479492188 -1.09843957424163818
-0.39891660213470459 1.96653008460998535 -1.19665133953094482
0.700687885284423828 2.19254803657531738 -1.06582534313201904
0.0275698155164718628 2.84546971321105957 -1.1774669885635376
0.0889702141284942627 2.82984519004821777 -1.15119743347167969
0.681711137294769287 2.18921017646789551 -1.0925910472869873
-0.225601956248283386 2.32728075981140137 -1.14168345928192139
0.0927621573209762573 2.76630401611328125 -1.14867627620697021
1.11014962196350098 2.63910031318664551 -1.10711419582366943
0.209184110164642334 1.38117384910583496 -1.11800158023834229
0.0969055444002151489 2.73566508293151855 -1.16583395004272461
0.0235704854130744934 2.93189883232116699 -1.17514967918395996
-0.498099595308303833 1.9905853271484375 -1.1835712194442749
-0.314417213201522827 2.04706764221191406 -1.19053137302398682
0.0966220945119857788 2.69810938835144043 -1.17538356781005859
-0.805551886558532715 2.29312252998352051 -1.14884376525878906
0.117997437715530396 2.76690125465393066 -1.16937696933746338
0.698127925395965576 3.44930219650268555 -1.08517932891845703
0.137823715806007385 2.85985445976257324 -1.17053782939910889
0.0224681496620178223 2.80847525596618652 -1.17176854610443115
-0.0916908979415893555 2.67627859115600586 -1.1500166654586792
-0.0402236431837081909 2.46460127830505371 -1.16756546497344971
-0.283332407474517822 3.91998672485351562 -1.12392449378967285
0.196142390370368958 1.36908519268035889 -1.13176524639129639
1.12086069583892822 2.63663220405578613 -1.10096657276153564
1.09023213386535645 2.64788508415222168 -1.06140732765197754
0.18693329393863678 1.38164126873016357 -1.14103376865386963
-1.1016545295715332 2.4910585880279541 -1.11470425128936768
0.0856051072478294373 2.72649407386779785 -1.15834915637969971
-0.293243110179901123 3.9225771427154541 -1.10196793079376221
1.11482346057891846 2.62970948219299316 -1.08038592338562012
-1.10073268413543701 2.48280167579650879 -1.10357785224914551
0.750472426414489746 3.54152989387512207 -1.11774158477783203
0.102378830313682556 2.68975400924682617 -1.13324451446533203
1.09192538261413574 2.64346599578857422 -1.08248043060302734
0.676494836807250977 2.18973970413208008 -1.09647464752197266
-0.0286879688501358032 2.4304957389831543 -1.13280785083770752
-0.37506672739982605 2.13815140724182129 -1.17220234870910645
-0.308272063732147217 2.13871669769287109 -1.15099680423736572
