ply
format ascii 1.0
element vertex 256
comment vertices
property float x
property float y
property float z
end_header
0.412830054759979248 3.86079835891723633 -0.794527947902679443
-0.442971199750900269 1.99667096138000488 -1.22587227821350098
-2.04103493690490723 2.81758236885070801 -0.490467876195907593
1.13801455497741699 2.62922549247741699 -1.12404155731201172
-0.559279263019561768 4.17184782028198242 -0.996522367000579834
-0.164989456534385681 5.00477743148803711 -0.326864510774612427
0.00585967302322387695 2.74648094177246094 -1.13884603977203369
1.07005608081817627 3.72326993942260742 -1.11831521987915039
-1.76136136054992676 2.79354572296142578 -1.20240509510040283
0.628688514232635498 4.76628780364990234 -0.451938748359680176
-0.877984166145324707 4.02645015716552734 -0.743999719619750977
0.203980103135108948 2.36094450950622559 -1.2005002498626709
0.300929248332977295 3.04719352722167969 -1.06412374973297119
-1.07709002494812012 2.40814495086669922 -1.1127089262008667
-1.26217734813690186 3.74904823303222656 -1.12668704986572266
0.301583588123321533 4.97574281692504883 -0.152099430561065674
1.27314078807830811 3.43512845039367676 -0.424711167812347412
-0.296192944049835205 3.90806007385253906 -1.12915170192718506
-1.26603245735168457 4.74993324279785156 -0.361376374959945679
0.563335061073303223 3.2447807788848877 -1.2373356819152832
0.367411971092224121 2.80794167518615723 -1.22040808200836182
0.861974656581878662 4.33379888534545898 -0.919499754905700684
0.162836134433746338 1.3570408821105957 -1.10084092617034912
0.874195218086242676 4.21101045608520508 -0.979505062103271484
1.11313319206237793 2.60890436172485352 -1.08161568641662598
-0.752468705177307129 3.2976226806640625 -1.08122539520263672
1.51540219783782959 3.17168951034545898 -1.16617989540100098
-0.12571948766708374 2.62200570106506348 -1.17979884147644043
0.0882780253887176514 2.95453906059265137 -1.15733873844146729
-0.885982155799865723 4.56109523773193359 -0.271430730819702148
0.186605155467987061 4.24915027618408203 -0.725008130073547363
0.0724797546863555908 2.69228029251098633 -1.1782606840133667
-1.52579295635223389 3.58601808547973633 -0.367881447076797485
0.549775242805480957 4.50949573516845703 -0.593944430351257324
-1.1214982271194458 4.17287778854370117 -1.07449424266815186
-0.244954168796539307 2.21937036514282227 -1.21686232089996338
0.682328402996063232 2.19012951850891113 -1.08997297286987305
0.293098747730255127 4.32805442810058594 -0.807696640491485596
-1.07598507404327393 2.5386650562286377 -1.01850748062133789
1.18357408046722412 2.68849778175354004 -1.06988966464996338
1.28926444053649902 3.8565526008605957 -0.276343673467636108
-1.33039951324462891 3.77252340316772461 -0.966113686561584473
0.992420792579650879 4.10856342315673828 -0.887068688869476318
-0.448380231857299805 2.11513471603393555 -1.18301892280578613
-0.456254065036773682 3.75954699516296387 -1.17613518238067627
0.0779505223035812378 4.75075817108154297 -0.781584024429321289
0.920289695262908936 4.62555265426635742 -0.191201537847518921
0.688228249549865723 3.76678466796875 -0.797654569149017334
0.134315177798271179 1.43631875514984131 -1.13139581680297852
0.71015697717666626 3.56547403335571289 -1.10247540473937988
-1.42269790172576904 3.77866029739379883 -0.655038952827453613
0.689926624298095703 2.20589566230773926 -1.10451698303222656
-0.36499333381652832 2.43144488334655762 -1.13820016384124756
-0.0985967814922332764 4.81472396850585938 -0.50273287296295166
-0.969508171081542969 3.84228372573852539 -1.14995861053466797
-0.936086177825927734 4.69781017303466797 -0.654650092124938965
-0.307836800813674927 1.99664318561553955 -1.24256157875061035
0.950171768665313721 2.6979210376739502 -1.18675005435943604
0.841466426849365234 4.19076442718505859 -0.919456839561462402
0.71653294563293457 4.5628352165222168 -0.580112874507904053
-1.97475659847259521 2.70995759963989258 -0.71546328067779541
-0.375683754682540894 4.74943256378173828 -0.733987152576446533
0.213773518800735474 1.41839885711669922 -1.08035075664520264
0.129588291049003601 4.75026321411132812 -0.342812120914459229
0.816051900386810303 2.49983000755310059 -1.11953115463256836
-1.1467745304107666 4.30789947509765625 -0.29612356424331665
0.123262852430343628 4.82655143737792969 -0.375303030014038086
-0.785573005676269531 4.26048898696899414 -0.953517317771911621
0.105380110442638397 2.82882070541381836 -1.13550972938537598
-1.45756649971008301 2.94822311401367188 -1.07136404514312744
-0.00772434473037719727 2.84804344177246094 -1.12991881370544434
-0.366922974586486816 3.9423224925994873 -1.08216631412506104
-1.1305387020111084 3.14753961563110352 -1.21785128116607666
-0.0574776977300643921 3.01436376571655273 -1.15574610233306885
0.631199836730957031 2.22959065437316895 -1.18680191040039062
1.07541954517364502 2.68119335174560547 -1.06131768226623535
0.688607275485992432 4.71999740600585938 -0.468984544277191162
0.0359934344887733459 2.83544635772705078 -1.1650383472442627
-0.762855410575866699 4.60327768325805664 -0.551704943180084229
-0.356785982847213745 2.16108083724975586 -1.13812780380249023
0.620891809463500977 4.15349864959716797 -1.00382804870605469
0.620611488819122314 3.93699216842651367 -0.648503124713897705
1.07065117359161377 2.78217315673828125 -1.15770220756530762
0.108876757323741913 2.74222850799560547 -1.1642603874206543
-0.935093998908996582 4.60677099227905273 -0.858096957206726074
0.675598204135894775 3.46140193939208984 -1.12632369995117188
-1.28408336639404297 3.7840266227722168 -0.598754227161407471
1.15631365776062012 3.30300545692443848 -1.14523673057556152
-0.0534032359719276428 2.34409284591674805 -1.19991087913513184
-1.09580814838409424 2.45876407623291016 -1.13687372207641602
0.839536607265472412 2.20821857452392578 -1.14653611183166504
-1.75670862197875977 3.45636606216430664 -0.450558483600616455
-1.30281555652618408 3.66141986846923828 -1.14269542694091797
0.446564435958862305 4.31712245941162109 -0.688607692718505859
0.658985137939453125 4.56736421585083008 -0.60335928201675415
-0.327605843544006348 3.90821528434753418 -1.153106689453125
0.787348270416259766 4.57167434692382812 -0.435368448495864868
-0.498238503932952881 2.21291208267211914 -1.11661064624786377
1.34452986717224121 4.3158574104309082 -0.959071218967437744
0.245991349220275879 4.68352317810058594 -0.633270919322967529
0.968086957931518555 3.67473983764648438 -1.02717769145965576
0.0977132320404052734 3.0005943775177002 -1.13809061050415039
0.0445857048034667969 4.13294601440429688 -0.860064983367919922
1.02736616134643555 3.58144187927246094 -0.79038238525390625
0.567629218101501465 2.36842870712280273 -1.15965151786804199
-1.23943626880645752 4.13395500183105469 -0.910943031311035156
-0.292339920997619629 2.01930928230285645 -1.2339169979095459
0.619421184062957764 4.00287723541259766 -0.86141204833984375
0.753094136714935303 3.53407168388366699 -1.13214898109436035
-1.06825149059295654 2.44025325775146484 -1.02893328666687012
0.665992856025695801 2.17345428466796875 -1.16116893291473389
0.210840925574302673 1.39664149284362793 -1.1080632209777832
-1.93740272521972656 2.94961309432983398 -0.580101251602172852
1.12564516067504883 2.6481475830078125 -1.08815431594848633
-1.07905101776123047 3.71555423736572266 -0.842302441596984863
1.37466621398925781 3.87102842330932617 -0.466243565082550049
-0.90560072660446167 4.0834355354309082 -1.02923464775085449
-1.34752154350280762 3.33728742599487305 -1.08805406093597412
0.708508014678955078 3.99351096153259277 -0.918468296527862549
0.0123455226421356201 2.14038968086242676 -1.20300555229187012
1.19954490661621094 3.7098076343536377 -0.451117932796478271
-1.00401210784912109 4.30060672760009766 -0.501377403736114502
-1.10451555252075195 3.65918517112731934 -1.05760812759399414
0.724347054958343506 2.42689180374145508 -1.164389967918396
-1.10590004920959473 4.70968818664550781 -0.476983726024627686
0.51062929630279541 4.05119609832763672 -0.8826446533203125
0.480995267629623413 4.59005832672119141 -0.547990500926971436
-1.09095203876495361 3.51067304611206055 -1.26111865043640137
0.682603001594543457 3.89031553268432617 -0.874995827674865723
0.781401753425598145 3.02957963943481445 -1.16100752353668213
-0.539256632328033447 4.67002344131469727 -0.495231866836547852
0.852868318557739258 4.01237630844116211 -1.01226711273193359
0.463576555252075195 2.32225656509399414 -1.16100168228149414
-0.0552398860454559326 2.8502042293548584 -1.16328787803649902
0.710260570049285889 3.5995938777923584 -1.12427496910095215
0.289740949869155884 4.45107460021972656 -0.89186018705368042
1.16683280467987061 3.42127537727355957 -0.665978491306304932
-0.111942321062088013 2.60438823699951172 -1.13320577144622803
-0.764055848121643066 4.60077810287475586 -0.84665447473526001
0.152577415108680725 1.45337438583374023 -1.1560828685760498
-1.49319231510162354 3.08963990211486816 -0.890012979507446289
0.634306967258453369 4.26593017578125 -0.439410865306854248
0.814485490322113037 3.98089122772216797 -0.995884418487548828
-0.630151271820068359 1.9671701192855835 -1.13629817962646484
0.432134151458740234 2.7379605770111084 -1.13821291923522949
0.2313498854637146 3.01770424842834473 -1.11073541641235352
-0.224162131547927856 2.23943710327148438 -1.19207310676574707
0.65565180778503418 2.21680593490600586 -1.11847329139709473
0.589140236377716064 4.66766595840454102 -0.493986308574676514
0.694317936897277832 2.25238251686096191 -1.14344656467437744
0.782224893569946289 3.50588440895080566 -1.08986496925354004
-0.154092341661453247 2.41598296165466309 -1.15212488174438477
0.111790269613265991 2.76722383499145508 -1.18260812759399414
-0.211862891912460327 2.52298688888549805 -1.138527512550354
0.225297406315803528 1.487479567527771 -1.09928715229034424
-0.0548056513071060181 4.60158395767211914 -0.718997478485107422
0.891122698783874512 2.52690243721008301 -1.16280460357666016
-0.363297998905181885 1.98814916610717773 -1.23109841346740723
-1.14493608474731445 4.43354940414428711 -0.74381333589553833
-0.527472972869873047 4.23497915267944336 -0.973415851593017578
1.41520500183105469 3.80808377265930176 -0.509430289268493652
0.381564706563949585 4.46726274490356445 -0.725904226303100586
0.726184368133544922 2.28452610969543457 -1.05012798309326172
-1.43865680694580078 3.62982654571533203 -0.544653534889221191
-1.29027175903320312 3.10385298728942871 -1.1539081335067749
-0.0278065428137779236 2.87543654441833496 -1.19650757312774658
-0.582059919834136963 4.71103286743164062 -0.271421700716018677
-1.17133557796478271 4.21638584136962891 -0.472162485122680664
0.103261232376098633 4.33775615692138672 -0.815119624137878418
-0.738506019115447998 4.515167236328125 -0.511348724365234375
-1.42905080318450928 3.97578167915344238 -0.697754263877868652
0.0702325701713562012 2.87706732749938965 -1.15461885929107666
1.27582740783691406 4.32401895523071289 -0.962042808532714844
-0.585881173610687256 4.61144733428955078 -0.895053088665008545
0.570099115371704102 4.39608955383300781 -0.689666688442230225
0.684835731983184814 2.21092319488525391 -1.08274304866790771
-1.0718226432800293 3.7335052490234375 -1.13855493068695068
-2.06156682968139648 2.59175944328308105 -0.620253145694732666
-1.00332927703857422 4.00447225570678711 -1.17679011821746826
-0.281686544418334961 2.35615730285644531 -1.12859594821929932
-0.102859139442443848 4.75885343551635742 -0.506166040897369385
0.058491826057434082 2.78715324401855469 -1.17472195625305176
-0.204235762357711792 5.0583653450012207 -0.372466504573822021
1.12869429588317871 2.64977693557739258 -1.13861608505249023
0.234160244464874268 1.43671488761901855 -1.09907746315002441
0.871312737464904785 4.54133844375610352 -0.391324251890182495
0.0707046985626220703 2.74117231369018555 -1.19514107704162598
0.680429756641387939 4.60714626312255859 -0.487497597932815552
-0.0328429192304611206 2.98910379409790039 -1.17750918865203857
0.233809590339660645 4.64275455474853516 -0.62349247932434082
-0.462711125612258911 2.05733609199523926 -1.2073976993560791
0.673697829246520996 4.48695898056030273 -0.74806821346282959
0.626079142093658447 4.72759246826171875 -0.422840684652328491
0.268859654664993286 4.60337924957275391 -0.407228916883468628
-1.19839823246002197 4.02457571029663086 -0.401385515928268433
0.735153555870056152 4.55949878692626953 -0.482762992382049561
-0.258411198854446411 2.07482528686523438 -1.2204749584197998
0.0825817137956619263 2.68175339698791504 -1.21011531352996826
-0.77367866039276123 2.27950906753540039 -1.14271485805511475
0.132749944925308228 2.76517367362976074 -1.19611835479736328
0.533539652824401855 3.31062650680541992 -1.09702527523040771
0.122030794620513916 2.90542435646057129 -1.17823314666748047
0.431921541690826416 3.9915618896484375 -0.932895541191101074
-0.0347642302513122559 2.82658982276916504 -1.19290685653686523
-1.06660056114196777 4.33357858657836914 -0.760825991630554199
-0.165543347597122192 2.6746819019317627 -1.18569517135620117
-1.15773189067840576 4.22365808486938477 -0.319161415100097656
-0.811325788497924805 4.20677518844604492 -0.861807703971862793
-0.0251128897070884705 2.50145769119262695 -1.20667481422424316
-0.759723126888275146 4.71980810165405273 -0.290647238492965698
0.438754528760910034 4.18777227401733398 -0.630835175514221191
-0.192385509610176086 3.84763264656066895 -1.12582266330718994
0.18754008412361145 1.400909423828125 -1.11802411079406738
1.16240870952606201 2.64101123809814453 -1.12516987323760986
-1.27692413330078125 4.38513612747192383 -0.766745209693908691
0.793013334274291992 4.65522050857543945 -0.453353434801101685
-0.227320015430450439 4.73610353469848633 -0.589291632175445557
0.742997527122497559 3.96001482009887695 -0.776863336563110352
1.0814507007598877 2.68222188949584961 -1.04925036430358887
0.111927822232246399 1.371978759765625 -1.15046167373657227
-1.01673996448516846 2.49948287010192871 -1.13771021366119385
-1.21804571151733398 3.80978870391845703 -1.07374107837677002
-1.162384033203125 4.94785356521606445 -0.536152362823486328
-1.11938166618347168 3.40922164916992188 -1.22306370735168457
0.940247237682342529 4.02987146377563477 -0.955167651176452637
0.632211983203887939 4.74098110198974609 -0.131323665380477905
-0.81718897819519043 4.09532642364501953 -1.12389671802520752
0.052142702043056488 2.73137235641479492 -1.18439960479736328
-1.42790377140045166 3.68831801414489746 -0.769678592681884766
-0.330147325992584229 3.90982580184936523 -1.10326600074768066
1.14767277240753174 2.64851975440979004 -1.07158732414245605
0.58194434642791748 4.21407175064086914 -0.961716890335083008
-1.07732188701629639 2.45246076583862305 -1.11397504806518555
0.432562351226806641 4.06161165237426758 -0.710670709609985352
-0.969249606132507324 4.64670133590698242 -0.574295461177825928
0.511561870574951172 4.26014566421508789 -0.828462839126586914
1.22217941284179688 4.36917209625244141 -0.90693354606628418
1.08179378509521484 3.32550907135009766 -1.13541984558105469
0.607922017574310303 4.03690910339355469 -1.01858186721801758
-1.14982056617736816 3.29848432540893555 -1.18264317512512207
1.05162620544433594 4.40729713439941406 -0.860903680324554443
0.184136152267456055 4.23795795440673828 -0.909469246864318848
0.733241617679595947 3.56621003150939941 -1.13227856159210205
0.0886514186859130859 2.68078827857971191 -1.14768838882446289
1.07876026630401611 2.68148303031921387 -1.09349024295806885
0.63979804515838623 2.22860264778137207 -1.08311772346496582
0.759990096092224121 4.66609525680541992 -0.607193052768707275
0.90028679370880127 3.67022895812988281 -0.504254817962646484
-0.929986834526062012 3.84618616104125977 -0.861675381660461426
-0.0387602746486663818 2.44508147239685059 -1.12286853790283203
-0.379767477512359619 2.18081808090209961 -1.17043709754943848
-0.331085056066513062 2.16541028022766113 -1.13263237476348877
0.282650172710418701 4.23639392852783203 -0.826471209526062012
1.1469423770904541 3.57172155380249023 -1.15302824974060059
-1.87903904914855957 3.10071825981140137 -0.523530900478363037
0.816308319568634033 3.72624754905700684 -0.63071674108505249
