ply
format ascii 1.0
element vertex 256
comment vertices
property float x
property float y
property float z
end_header
-0.178555130958557129 2.33039546012878418 -1.1058647632598877
-0.48279958963394165 1.94339323043823242 -1.18998610973358154
-2.9054102897644043 1.1665576696395874 -0.893513679504394531
1.11244761943817139 2.63514924049377441 -1.10154569149017334
0.0517295002937316895 3.07576298713684082 -1.14528179168701172
0.0796176791191101074 4.97067832946777344 -0.241424292325973511
0.0514833331108093262 2.73431015014648438 -1.1249622106552124
0.954397857189178467 3.69543743133544922 -1.10805702209472656
-2.03259968757629395 2.70934104919433594 -1.19277393817901611
0.484997212886810303 4.70067358016967773 -0.573337197303771973
-0.388255685567855835 2.94311690330505371 -1.06906723976135254
0.156186878681182861 2.39259219169616699 -1.15340864658355713
0.263494938611984253 3.02480769157409668 -1.12229859828948975
-1.10041487216949463 2.48200130462646484 -1.10551488399505615
-1.32870066165924072 3.47178792953491211 -1.18845129013061523
0.416567802429199219 4.76065158843994141 0.149900704622268677
2.12634706497192383 0.592974424362182617 -1.10390162467956543
-0.285692721605300903 3.91487693786621094 -1.11404299736022949
-2.09766530990600586 3.10576772689819336 -0.943696856498718262
0.563372552394866943 3.3091888427734375 -1.11815321445465088
0.261472344398498535 2.81086134910583496 -1.17115950584411621
0.8957480788230896 4.28650999069213867 -1.03812301158905029
0.196111857891082764 1.36296594142913818 -1.12833309173583984
0.76452404260635376 4.15451240539550781 -1.10088622570037842
1.10244357585906982 2.63103389739990234 -1.08225500583648682
0.226166605949401855 1.91475009918212891 -1.26856470108032227
1.72808325290679932 3.13303565979003906 -1.12125551700592041
-0.058070942759513855 2.62241077423095703 -1.14070332050323486
0.11199091374874115 2.89915275573730469 -1.16034090518951416
-0.704116225242614746 3.87236714363098145 -0.366159737110137939
0.188655823469161987 2.34209871292114258 -1.3176424503326416
0.090972900390625 2.70093750953674316 -1.15456938743591309
-1.08524799346923828 2.44295287132263184 -0.610483169555664062
0.669020116329193115 4.17594146728515625 -0.794454693794250488
-1.3216778039932251 4.0995640754699707 -1.16752326488494873
-0.229402497410774231 2.20579147338867188 -1.19448661804199219
0.680256247520446777 2.19048762321472168 -1.0949409008026123
-0.173195928335189819 2.91747236251831055 -1.23945915699005127
-1.0867990255355835 2.48034906387329102 -1.06021606922149658
1.12677741050720215 2.63873291015625 -1.07547593116760254
1.50889205932617188 3.64062213897705078 -0.271548986434936523
-1.61219692230224609 3.54002165794372559 -1.1144939661026001
1.0846860408782959 3.91402864456176758 -1.00383245944976807
-0.461205512285232544 2.05075550079345703 -1.17254388332366943
-0.395040452480316162 3.83893513679504395 -1.13422489166259766
0.350059926509857178 4.24470901489257812 -0.923899173736572266
1.08824670314788818 4.22597551345825195 -0.176348060369491577
0.74245750904083252 2.43534493446350098 -1.12554454803466797
0.177736923098564148 1.39272737503051758 -1.12691354751586914
0.762525200843811035 3.53148555755615234 -1.12725198268890381
-2.10209965705871582 2.38596582412719727 -1.02759933471679688
0.682420074939727783 2.1909329891204834 -1.09985029697418213
-0.32928931713104248 2.38870763778686523 -1.15589296817779541
0.424277514219284058 4.20430612564086914 -0.527077317237854004
-0.697372019290924072 3.05830025672912598 -1.28333210945129395
-1.29471588134765625 3.75914382934570312 -1.00246345996856689
-0.339233428239822388 1.97588050365447998 -1.20935368537902832
1.10857164859771729 2.66750693321228027 -1.11885166168212891
0.801524817943572998 4.12653112411499023 -1.10543251037597656
1.31311392784118652 3.90293765068054199 -0.807158350944519043
-1.77252578735351562 0.290781736373901367 -1.15218138694763184
-0.313355594873428345 4.03374052047729492 -1.03298330307006836
0.202260658144950867 1.37637913227081299 -1.11163008213043213
0.530878126621246338 4.19613027572631836 -0.351379692554473877
0.846183478832244873 2.45459556579589844 -1.08911013603210449
-1.34055018424987793 3.75744867324829102 -0.383319318294525146
0.537229537963867188 4.39517354965209961 -0.301748007535934448
-1.04066383838653564 3.78629183769226074 -1.06929600238800049
0.106980264186859131 2.80359411239624023 -1.14827275276184082
-1.53684806823730469 2.19520974159240723 -1.16638219356536865
0.0483776256442070007 2.80923628807067871 -1.1289527416229248
-0.303443789482116699 3.92788219451904297 -1.08492493629455566
-0.635654330253601074 1.92541885375976562 -1.3613051176071167
-0.023838430643081665 2.96082758903503418 -1.16497492790222168
0.674130737781524658 2.21208786964416504 -1.12147021293640137
1.08916699886322021 2.6466670036315918 -1.06670641899108887
0.990498542785644531 4.41733646392822266 -0.633168339729309082
0.0771184265613555908 2.80546665191650391 -1.14666473865509033
-0.646626889705657959 3.69644403457641602 -0.756042659282684326
-0.34911152720451355 2.12229084968566895 -1.15554749965667725
0.360338985919952393 3.9444427490234375 -1.14941775798797607
0.635384142398834229 3.11094880104064941 -1.02108538150787354
1.08421659469604492 2.66487812995910645 -1.09837889671325684
0.107545405626296997 2.74810624122619629 -1.15643453598022461
-1.28593540191650391 4.27549839019775391 -1.02312517166137695
0.771113097667694092 3.5619044303894043 -1.11853122711181641
-1.32877433300018311 2.45516467094421387 -0.938163042068481445
1.08917403221130371 3.33488011360168457 -1.11277055740356445
-0.0459631346166133881 2.35883164405822754 -1.1728971004486084
-1.10197710990905762 2.48031258583068848 -1.11291790008544922
0.694861471652984619 2.19596409797668457 -1.09867739677429199
-1.81731033325195312 1.95654451847076416 -0.728620648384094238
-1.56128978729248047 3.1159522533416748 -1.2470855712890625
0.595088005065917969 3.26572537422180176 -1.08667886257171631
0.98946380615234375 4.07242679595947266 -0.783022224903106689
-0.293590664863586426 3.91148138046264648 -1.12213766574859619
1.68023109436035156 3.56415772438049316 -0.68295753002166748
-0.414573341608047485 2.17849612236022949 -1.14136326313018799
1.9842303991317749 4.09983205795288086 -1.0488436222076416
0.573718786239624023 3.97869348526000977 -0.814244866371154785
0.74491417407989502 3.57767796516418457 -1.13801252841949463
0.120999604463577271 2.93044590950012207 -1.15496242046356201
-0.280250370502471924 1.41243982315063477 -1.43136763572692871
1.03374207019805908 3.12975907325744629 -0.950902342796325684
0.667467594146728516 2.21307659149169922 -1.10619032382965088
-1.80063211917877197 3.83817362785339355 -1.09724986553192139
-0.354918956756591797 1.97348368167877197 -1.20594596862792969
0.538196027278900146 3.57954025268554688 -1.07668137550354004
0.746465921401977539 3.5471806526184082 -1.11372256278991699
-1.10155808925628662 2.48039054870605469 -1.05416190624237061
0.679433465003967285 2.2066338062286377 -1.11431539058685303
0.202581226825714111 1.36397087574005127 -1.1294395923614502
-2.49421501159667969 1.48865711688995361 -0.946977496147155762
1.10850691795349121 2.63212895393371582 -1.08578252792358398
-0.801002919673919678 2.81313085556030273 -1.15662682056427002
1.92990875244140625 3.27797794342041016 -0.644714057445526123
-0.927355289459228516 3.53101944923400879 -1.16019296646118164
-1.55188620090484619 2.93970227241516113 -1.18061578273773193
0.514431595802307129 3.57698559761047363 -1.10322415828704834
-0.00240923091769218445 2.15761923789978027 -1.17095708847045898
1.498291015625 2.79360461235046387 -0.743155717849731445
-0.782753467559814453 3.23479890823364258 -0.743881642818450928
-1.03708815574645996 3.44718790054321289 -1.19492161273956299
0.657769203186035156 2.22457385063171387 -1.10316157341003418
-1.35236942768096924 3.56687545776367188 -0.953441023826599121
0.296799957752227783 3.43235373497009277 -1.09758079051971436
0.671960711479187012 4.03420591354370117 -0.773371338844299316
-0.740931272506713867 2.97361183166503906 -1.30261349678039551
0.553379476070404053 3.27442836761474609 -1.10013890266418457
0.654641509056091309 3.01418948173522949 -1.11302447319030762
-0.153274744749069214 3.7261195182800293 -0.812821030616760254
0.701081275939941406 3.80966758728027344 -1.14927494525909424
0.68023681640625 2.2138054370880127 -1.11266469955444336
0.00773740559816360474 2.82357358932495117 -1.15452146530151367
0.75892484188079834 3.53945207595825195 -1.12186241149902344
-0.0879750847816467285 3.55528020858764648 -1.26833677291870117
1.77810788154602051 0.948291778564453125 -1.17225027084350586
-0.046374395489692688 2.60562920570373535 -1.10685610771179199
-0.766722261905670166 4.16283416748046875 -0.982446193695068359
0.18382580578327179 1.39455127716064453 -1.13571906089782715
-1.68313395977020264 2.93999791145324707 -1.01625752449035645
1.17127037048339844 3.12528467178344727 -0.794261336326599121
0.655915200710296631 3.46888303756713867 -1.14668083190917969
-0.802997887134552002 1.8096013069152832 -1.13335871696472168
0.377591401338577271 2.74980950355529785 -1.1227881908416748
0.188036069273948669 2.9449162483215332 -1.15557587146759033
-0.212969541549682617 2.23066306114196777 -1.17370069026947021
0.672700583934783936 2.19573473930358887 -1.10654020309448242
0.612901926040649414 4.46297979354858398 -0.672516405582427979
0.683772742748260498 2.1994631290435791 -1.10829031467437744
0.741706192493438721 3.54768729209899902 -1.10855281352996826
-0.124702244997024536 2.40593218803405762 -1.1677776575088501
0.114554531872272491 2.76639890670776367 -1.16200911998748779
-0.151405960321426392 2.47687292098999023 -1.17023718357086182
0.205233484506607056 1.40360832214355469 -1.1084367036819458
-0.543271780014038086 3.28045129776000977 -1.09926521778106689
1.07132136821746826 2.64188766479492188 -1.09843957424163818
-0.39891660213470459 1.96653008460998535 -1.19665133953094482
-1.64368104934692383 3.71944022178649902 -0.977865338325500488
0.0786878466606140137 3.53972864151000977 -1.09037423133850098
2.13629388809204102 2.97843718528747559 -0.765242934226989746
0.455907374620437622 3.88623642921447754 -0.997159004211425781
0.700687885284423828 2.19254803657531738 -1.06582534313201904
-1.36511552333831787 1.92910146713256836 -0.968107819557189941
-1.29327356815338135 2.01610994338989258 -1.28499400615692139
0.0275698155164718628 2.84546971321105957 -1.1774669885635376
-0.370364874601364136 4.11267232894897461 -0.405150234699249268
-1.29431319236755371 3.42507123947143555 -0.602372586727142334
-0.316099613904953003 3.00049090385437012 -1.33101749420166016
-0.579043745994567871 3.10915231704711914 -0.797239422798156738
-2.27591729164123535 3.04967594146728516 -0.945792496204376221
0.0889702141284942627 2.82984519004821777 -1.15119743347167969
1.92479991912841797 4.13339567184448242 -1.0406181812286377
-0.167061567306518555 3.78938388824462891 -1.16012752056121826
0.784064292907714844 3.58752274513244629 -0.952979326248168945
0.681711137294769287 2.18921017646789551 -1.0925910472869873
-0.967546820640563965 3.36732029914855957 -1.23981654644012451
-2.28775811195373535 -0.444586277008056641 -1.16553068161010742
-1.0799565315246582 3.61816167831420898 -1.16669857501983643
-0.225601956248283386 2.32728075981140137 -1.14168345928192139
0.237597912549972534 3.8964850902557373 -0.663401186466217041
0.0927621573209762573 2.76630401611328125 -1.14867627620697021
0.0188238024711608887 5.03506565093994141 -0.27808845043182373
1.11014962196350098 2.63910031318664551 -1.10711419582366943
0.209184110164642334 1.38117384910583496 -1.11800158023834229
2.03822851181030273 3.21121406555175781 -0.676635980606079102
0.0969055444002151489 2.73566508293151855 -1.16583395004272461
0.759357988834381104 4.05558872222900391 -0.717837274074554443
0.0235704854130744934 2.93189883232116699 -1.17514967918395996
0.185990303754806519 3.99951362609863281 -0.743333518505096436
-0.498099595308303833 1.9905853271484375 -1.1835712194442749
0.77473217248916626 4.35506200790405273 -0.903167247772216797
0.569767296314239502 4.69026803970336914 -0.46675524115562439
0.53456413745880127 4.05185747146606445 -0.549715340137481689
-1.18552792072296143 3.07238149642944336 -0.57958829402923584
1.36857211589813232 3.73239707946777344 -0.756368160247802734
-0.314417213201522827 2.04706764221191406 -1.19053137302398682
0.0966220945119857788 2.69810938835144043 -1.17538356781005859
-0.805551886558532715 2.29312252998352051 -1.14884376525878906
0.117997437715530396 2.76690125465393066 -1.16937696933746338
0.698127925395965576 3.44930219650268555 -1.08517932891845703
0.137823715806007385 2.85985445976257324 -1.17053782939910889
-0.160363435745239258 3.0985114574432373 -1.15328991413116455
0.0224681496620178223 2.80847525596618652 -1.17176854610443115
-1.18445825576782227 4.1579890251159668 -0.868482410907745361
-0.0916908979415893555 2.67627859115600586 -1.1500166654586792
-1.12023794651031494 3.67062640190124512 -0.371867984533309937
-0.817831456661224365 3.61631035804748535 -1.067596435546875
-0.0402236431837081909 2.46460127830505371 -1.16756546497344971
-0.611158668994903564 4.11677360534667969 -0.303593575954437256
0.517808854579925537 2.80060434341430664 -1.14750766754150391
-0.283332407474517822 3.91998672485351562 -1.12392449378967285
0.196142390370368958 1.36908519268035889 -1.13176524639129639
1.12086069583892822 2.63663220405578613 -1.10096657276153564
-2.09436464309692383 4.16659307479858398 -0.921755433082580566
1.37929058074951172 4.03740596771240234 -0.616260170936584473
-0.194371968507766724 3.80313277244567871 -0.908621549606323242
0.650346338748931885 3.72029685974121094 -1.02963387966156006
1.09023213386535645 2.64788508415222168 -1.06140732765197754
0.18693329393863678 1.38164126873016357 -1.14103376865386963
-1.1016545295715332 2.4910585880279541 -1.11470425128936768
-1.21970105171203613 3.50284385681152344 -1.1833115816116333
-1.56590461730957031 4.30765581130981445 -0.97237396240234375
-1.00918173789978027 3.05243968963623047 -1.28561151027679443
0.873783111572265625 3.83562684059143066 -1.07141804695129395
0.656698882579803467 4.61428546905517578 -0.150344386696815491
-0.835032224655151367 3.57146692276000977 -1.16914200782775879
0.0856051072478294373 2.72649407386779785 -1.15834915637969971
-1.73588776588439941 2.44367837905883789 -1.09191322326660156
-0.293243110179901123 3.9225771427154541 -1.10196793079376221
1.11482346057891846 2.62970948219299316 -1.08038592338562012
0.336870342493057251 4.07216310501098633 -1.10688948631286621
-1.10073268413543701 2.48280167579650879 -1.10357785224914551
0.122347891330718994 2.72273111343383789 -1.10670590400695801
-1.21577906608581543 3.44626569747924805 -0.838828682899475098
0.465241819620132446 3.86859250068664551 -1.05998408794403076
1.78709828853607178 4.2846226692199707 -1.00066876411437988
1.00927615165710449 3.35802912712097168 -1.10430741310119629
0.069357752799987793 3.60688114166259766 -1.18810129165649414
-0.99826657772064209 2.94314384460449219 -1.24580955505371094
1.28209304809570312 4.43358898162841797 -0.946667015552520752
-0.284814685583114624 2.75409412384033203 -1.34235227108001709
0.750472426414489746 3.54152989387512207 -1.11774158477783203
0.102378830313682556 2.68975400924682617 -1.13324451446533203
1.09192538261413574 2.64346599578857422 -1.08248043060302734
0.676494836807250977 2.18973970413208008 -1.09647464752197266
1.18374359607696533 4.50060415267944336 -0.71348273754119873
1.14082050323486328 1.85668540000915527 -1.03678679466247559
-0.521502494812011719 2.37036609649658203 -1.20993554592132568
-0.0286879688501358032 2.4304957389831543 -1.13280785083770752
-0.37506672739982605 2.13815140724182129 -1.17220234870910645
-0.308272063732147217 2.13871669769287109 -1.15099680423736572
0.21992214024066925 2.96288919448852539 -1.28662872314453125
1.04465162754058838 3.59657049179077148 -1.11696827411651611
-2.43845200538635254 1.75541079044342041 -0.82597196102142334
1.03278779983520508 2.20307588577270508 -1.10513591766357422
