ply
format ascii 1.0
element vertex 256
comment vertices
property float x
property float y
property float z
end_header
-2.81894183158874512 -1.22050786018371582 0.423231065273284912
1.34416401386260986 2.89415526390075684 0.75792163610458374
-2.02338099479675293 1.0936427116394043 0.772359251976013184
2.41616463661193848 -3.1471562385559082 0.942650079727172852
1.28087890148162842 -0.612111091613769531 0.419350713491439819
1.36120116710662842 -4.41071987152099609 0.783813178539276123
-0.912862062454223633 4.37398099899291992 0.86375802755355835
-1.42363810539245605 0.769364714622497559 0.460036784410476685
0.0733083635568618774 3.65294051170349121 0.488824784755706787
0.255030632019042969 -2.23695182800292969 0.5716896653175354
1.88088142871856689 1.70423674583435059 0.835670828819274902
1.85897934436798096 -1.46366322040557861 0.800728321075439453
-1.38232803344726562 -1.51593828201293945 0.717459261417388916
-1.60429835319519043 2.8534705638885498 0.573698878288269043
1.49306714534759521 -4.45624732971191406 0.734753906726837158
1.19908642768859863 -1.66455233097076416 0.45392078161239624
-1.29145324230194092 -2.85064435005187988 0.693671762943267822
-2.00415945053100586 2.33064651489257812 0.777555942535400391
0.694780349731445312 2.42668533325195312 0.556500554084777832
-1.10948467254638672 -1.03885114192962646 0.94170844554901123
-1.11641025543212891 0.461519747972488403 0.492417693138122559
0.829511046409606934 2.4443211555480957 0.496549934148788452
-1.71039736270904541 1.08364677429199219 0.529100656509399414
1.31942844390869141 -1.02939677238464355 0.6228790283203125
0.182594805955886841 -1.697914719581604 0.170992404222488403
-1.7384258508682251 -2.21833157539367676 0.602498531341552734
-1.26907777786254883 -2.52798914909362793 0.434883415699005127
0.887534022331237793 -4.13500261306762695 0.74882960319519043
1.14911448955535889 2.44624829292297363 0.706897616386413574
0.546353697776794434 -1.5189671516418457 0.549657702445983887
-0.537043988704681396 2.72596526145935059 0.638754785060882568
0.682794630527496338 2.52435445785522461 0.542126655578613281
-1.35883545875549316 3.84904932975769043 0.650182962417602539
-0.406100273132324219 -1.43210053443908691 0.634320080280303955
1.90747785568237305 -3.28618240356445312 0.718327641487121582
0.956532716751098633 2.48358440399169922 0.554825067520141602
0.152327597141265869 -3.1475822925567627 0.586660385131835938
0.56014406681060791 -1.82371234893798828 0.44289320707321167
-1.48391377925872803 0.983190178871154785 0.477843314409255981
0.735979795455932617 2.55535697937011719 0.550936222076416016
-1.77326619625091553 3.02613568305969238 0.631858468055725098
-1.53563737869262695 -1.96694004535675049 0.561422348022460938
0.932566285133361816 -0.739754915237426758 0.471626341342926025
-0.844949483871459961 2.86795139312744141 0.738200068473815918
-1.55997276306152344 0.633935272693634033 0.475655257701873779
0.886153638362884521 2.39864349365234375 0.528435885906219482
-2.17452239990234375 2.72672843933105469 0.805467963218688965
0.75565183162689209 -2.8161628246307373 0.605159521102905273
1.88792252540588379 -1.52972006797790527 0.902446389198303223
0.17299439013004303 -0.300173491239547729 0.583372354507446289
-0.695532917976379395 0.411319494247436523 0.561568021774291992
-1.29567742347717285 2.97425079345703125 0.587895393371582031
0.756794571876525879 -4.66606283187866211 0.802682995796203613
-1.74080061912536621 0.977552115917205811 0.571663022041320801
-1.71716117858886719 4.09489774703979492 0.737472176551818848
0.73371434211730957 -2.27607226371765137 0.380008429288864136
2.3878028392791748 -2.73272275924682617 0.66968536376953125
0.0926899909973144531 0.159052342176437378 0.525222718715667725
1.26351618766784668 -1.79042363166809082 0.494926929473876953
-0.477756679058074951 -0.101868808269500732 0.491336792707443237
0.479439020156860352 1.31645727157592773 0.618258535861968994
0.416494518518447876 2.64462780952453613 0.534998416900634766
0.739183247089385986 -2.36023426055908203 0.429154187440872192
0.955923736095428467 1.06641077995300293 0.685252904891967773
-1.49105668067932129 0.802893459796905518 0.445029348134994507
0.724969029426574707 2.55779743194580078 0.506505846977233887
-1.4730985164642334 2.28249788284301758 0.691521167755126953
-1.17817425727844238 1.45000779628753662 0.520199775695800781
1.26229739189147949 3.04825115203857422 0.786191701889038086
-0.122648000717163086 3.59836101531982422 0.810133218765258789
-1.5306168794631958 0.791489005088806152 0.444805771112442017
0.670465409755706787 2.61433935165405273 0.521021902561187744
-2.03542494773864746 -1.85381698608398438 0.677216410636901855
0.106932133436203003 -1.3051607608795166 0.446111619472503662
1.15739643573760986 -3.48388576507568359 0.56391453742980957
-1.36886322498321533 -1.49259662628173828 0.69894641637802124
-0.232032090425491333 3.19411087036132812 0.471254318952560425
1.02680742740631104 -2.0086057186126709 0.304187417030334473
-1.28041672706604004 2.4748227596282959 0.616705060005187988
0.884357094764709473 2.98102545738220215 0.504792094230651855
-2.05423879623413086 -0.689514756202697754 0.671232342720031738
-1.44846916198730469 0.718956470489501953 0.437052071094512939
0.900362253189086914 -1.1059412956237793 0.489199072122573853
-1.21532177925109863 -2.71533966064453125 0.745284914970397949
1.21082043647766113 -4.23855400085449219 0.626836180686950684
1.08961808681488037 -0.75514066219329834 0.429940283298492432
1.63183486461639404 2.31659507751464844 0.827940702438354492
-0.191924765706062317 3.84292125701904297 0.718570232391357422
-1.596771240234375 -2.18054413795471191 0.529696404933929443
1.5857996940612793 -0.745188713073730469 0.670034646987915039
0.255213618278503418 -1.76167917251586914 0.267690002918243408
-1.59483468532562256 3.08369302749633789 0.640183210372924805
1.59748530387878418 -1.7840723991394043 0.682553350925445557
-0.715657651424407959 0.793600738048553467 0.624224185943603516
-2.50711154937744141 0.749867796897888184 0.87036508321762085
0.539052128791809082 -1.44795715808868408 0.591118216514587402
-1.25297510623931885 4.40951919555664062 0.654175758361816406
0.587415158748626709 3.06487941741943359 0.608313441276550293
-1.52171528339385986 -1.42964684963226318 0.555751562118530273
1.00547969341278076 -3.97746419906616211 0.722148358821868896
0.810259401798248291 -1.91652703285217285 0.423307240009307861
0.908206343650817871 -0.786334037780761719 0.48334425687789917
0.882476866245269775 -2.29069995880126953 0.216344743967056274
1.05375444889068604 2.8928065299987793 0.554554581642150879
1.97471845149993896 -3.32624268531799316 0.86371302604675293
-0.642749786376953125 2.03751897811889648 0.575377166271209717
-1.40049374103546143 1.5267021656036377 0.609176397323608398
0.726196050643920898 2.51276874542236328 0.529960453510284424
1.31013798713684082 2.09005641937255859 0.624626636505126953
1.97238779067993164 -2.41567564010620117 0.721984684467315674
-1.2722618579864502 -1.75729513168334961 0.649415731430053711
-0.718217432498931885 0.130267426371574402 0.542638480663299561
-1.62640976905822754 2.52144169807434082 0.607565164566040039
0.0297806710004806519 1.92026281356811523 0.690058410167694092
0.493520259857177734 -4.21520328521728516 0.833631277084350586
-1.26717519760131836 -1.98562860488891602 0.666841387748718262
-0.0424499735236167908 3.26775741577148438 0.755619406700134277
0.678076028823852539 2.45701861381530762 0.545144557952880859
0.949756622314453125 -0.22345656156539917 0.625560164451599121
0.497469484806060791 -1.55826616287231445 0.419285237789154053
1.49016833305358887 -2.37659692764282227 0.613211691379547119
1.5129009485244751 1.92740201950073242 0.745833039283752441
-2.26117444038391113 0.704938173294067383 0.735655009746551514
-1.57453155517578125 4.03766345977783203 0.844325542449951172
-1.32522428035736084 -2.92830944061279297 0.591301918029785156
0.483367562294006348 -3.51359748840332031 0.766700923442840576
-1.55513548851013184 -2.02556014060974121 0.558541715145111084
1.86650466918945312 -2.95312738418579102 0.835372865200042725
0.816583096981048584 -1.67553818225860596 0.37645488977432251
-1.62986290454864502 0.133419856429100037 0.442473530769348145
1.26908564567565918 2.50630593299865723 0.746728837490081787
1.93833041191101074 -1.82520806789398193 0.641330897808074951
0.684657692909240723 -1.17957448959350586 0.462493598461151123
0.871988058090209961 -2.35051727294921875 0.386074662208557129
1.56647825241088867 -2.75613808631896973 0.653660118579864502
0.025211818516254425 2.7438209056854248 0.695132970809936523
-1.68398904800415039 2.90339994430541992 0.620850324630737305
-1.21503949165344238 3.69628763198852539 0.646251261234283447
-1.53870141506195068 2.75580263137817383 0.591202259063720703
0.805162250995635986 -1.0049135684967041 0.398269474506378174
-2.68579626083374023 -1.46730959415435791 0.421347290277481079
-1.61566686630249023 2.85721540451049805 0.556575179100036621
0.630846798419952393 -2.6445317268371582 0.561943709850311279
1.17053282260894775 -2.51782989501953125 0.564892053604125977
1.55328679084777832 -3.71565818786621094 0.629737317562103271
1.78657734394073486 3.05581474304199219 0.641176700592041016
-2.15138578414916992 2.40926170349121094 0.688962221145629883
0.780715823173522949 -2.723052978515625 0.5742301344871521
0.334231317043304443 2.53123259544372559 0.496924102306365967
-1.79278695583343506 -2.12474489212036133 0.583032011985778809
0.236977159976959229 2.63421869277954102 0.6664276123046875
-1.2889329195022583 3.66612076759338379 0.547088265419006348
-1.48696482181549072 0.72155606746673584 0.441763162612915039
0.781261026859283447 2.13159751892089844 0.533474326133728027
0.865590751171112061 0.977118968963623047 0.464543312788009644
0.733644008636474609 2.48181819915771484 0.49989202618598938
-1.28288257122039795 0.848900258541107178 0.516511321067810059
-1.39583015441894531 1.04876530170440674 0.522338747978210449
-1.42262554168701172 2.76143217086791992 0.577863812446594238
0.0135038197040557861 1.96429276466369629 0.666722357273101807
-1.24105632305145264 0.922068536281585693 0.641991615295410156
0.819464623928070068 -2.39258623123168945 0.404414594173431396
-1.6182703971862793 -0.820823907852172852 0.656495749950408936
-0.831979691982269287 2.80047702789306641 0.730230927467346191
-1.81782233715057373 3.14022994041442871 0.63458329439163208
1.25603699684143066 3.05965757369995117 0.779381871223449707
-1.48968112468719482 1.38888049125671387 0.665386199951171875
-1.63611459732055664 -2.03128790855407715 0.509143590927124023
0.139291808009147644 -0.378932714462280273 0.572455167770385742
0.818762838840484619 3.00107669830322266 0.459641218185424805
1.22473430633544922 2.9706873893737793 0.645892202854156494
-0.523145079612731934 1.31311202049255371 0.506395161151885986
0.165700823068618774 3.35274839401245117 0.71966552734375
-2.23017120361328125 2.71326422691345215 0.768425047397613525
0.928055942058563232 1.06874489784240723 0.649505913257598877
0.120566770434379578 2.91966485977172852 0.464174628257751465
0.417895287275314331 -4.78637027740478516 0.736392438411712646
0.953307926654815674 -0.803842842578887939 0.510598659515380859
0.727519810199737549 2.66453242301940918 0.542319297790527344
1.2935481071472168 -3.64264702796936035 0.693700253963470459
1.35726475715637207 -1.70354652404785156 0.563086390495300293
-1.18129456043243408 -1.25082790851593018 0.498415648937225342
1.66862738132476807 -0.761962771415710449 0.675812959671020508
0.0486414730548858643 3.13069319725036621 0.698005199432373047
0.774557769298553467 3.10181188583374023 0.37200579047203064
0.346961379051208496 -0.959710359573364258 0.550547361373901367
-0.730353116989135742 0.817104339599609375 0.58235621452331543
-1.21973443031311035 -2.43016719818115234 0.49848511815071106
0.942686736583709717 1.04492390155792236 0.669651389122009277
1.91600537300109863 -1.81775450706481934 0.82096552848815918
1.59942150115966797 -2.29270720481872559 0.660586237907409668
0.974165499210357666 -0.715079307556152344 0.482486218214035034
-1.51715707778930664 2.33635854721069336 0.674174666404724121
-1.3126368522644043 -1.99203777313232422 0.634240984916687012
-1.48982489109039307 0.797712564468383789 0.450930923223495483
0.631061673164367676 2.63345623016357422 0.675286829471588135
-1.28467655181884766 0.631478846073150635 0.491448342800140381
-0.96342158317565918 4.38862466812133789 0.845390081405639648
0.217052742838859558 -2.27234625816345215 0.577399373054504395
-3.21181011199951172 -1.2030642032623291 0.243740499019622803
0.570435643196105957 -0.973571181297302246 0.396537274122238159
-1.52460575103759766 2.77980923652648926 0.605751156806945801
-2.25336217880249023 2.64100551605224609 0.738376855850219727
-1.33783888816833496 -2.80966734886169434 0.580729484558105469
2.48398423194885254 -2.88083171844482422 0.926692724227905273
0.791764616966247559 -2.45145153999328613 0.366370886564254761
-1.0568537712097168 0.266421198844909668 0.620418310165405273
-0.0744094550609588623 2.58544659614562988 0.480881810188293457
1.58853328227996826 -1.84781718254089355 0.457190454006195068
-0.0589700639247894287 2.22369384765625 0.571958303451538086
-1.74433064460754395 4.02748203277587891 0.913063526153564453
1.56500542163848877 -1.32592511177062988 0.579115808010101318
1.0651242733001709 -0.974393486976623535 0.395084679126739502
-1.642600417137146 -1.89576947689056396 0.599187135696411133
-1.11224162578582764 2.30567407608032227 0.581145882606506348
-1.27622056007385254 1.07909393310546875 0.481390595436096191
-0.0144064575433731079 2.38806414604187012 0.709617078304290771
0.853128015995025635 -3.75939321517944336 0.610483050346374512
1.369972825050354 -2.01830816268920898 0.577597677707672119
0.90110403299331665 -0.187579959630966187 0.643860578536987305
-1.35880422592163086 -2.74842214584350586 0.439684629440307617
-1.63585281372070312 -1.92516303062438965 0.713926434516906738
0.503578841686248779 3.08925294876098633 0.451079040765762329
0.680783689022064209 2.50823760032653809 0.549088954925537109
1.53289663791656494 -1.05512940883636475 0.656988143920898438
-0.617934644222259521 1.36231350898742676 0.525321364402770996
0.475465238094329834 -2.30005788803100586 0.440912127494812012
1.0497739315032959 -3.48583173751831055 0.663551151752471924
1.01576995849609375 -1.85664510726928711 0.24526485800743103
1.27265298366546631 2.41731858253479004 0.697768688201904297
-2.27940726280212402 0.687449812889099121 0.753348946571350098
-1.74511623382568359 0.93581080436706543 0.479672878980636597
1.48478245735168457 2.0117650032043457 0.691195487976074219
0.54459613561630249 -1.47115743160247803 0.568817496299743652
0.937672078609466553 -0.804886996746063232 0.487340688705444336
-1.47465217113494873 2.30882811546325684 0.723333299160003662
-2.07266998291015625 2.45037961006164551 0.556091010570526123
0.724248528480529785 -2.82554769515991211 0.530139803886413574
0.532866120338439941 -4.09975957870483398 0.665992498397827148
-2.09880781173706055 1.93247747421264648 0.831678032875061035
-0.835849523544311523 2.90727567672729492 0.729654848575592041
-1.25841784477233887 1.84116721153259277 0.537611007690429688
0.269447386264801025 -2.25439929962158203 0.546588897705078125
-1.37494063377380371 -2.05042052268981934 0.470546185970306396
0.481125593185424805 0.141556203365325928 0.534433841705322266
1.00703668594360352 2.29976701736450195 0.507671892642974854
1.13001251220703125 -0.921636700630187988 0.343401461839675903
-1.61877191066741943 -1.85833287239074707 0.730162978172302246
-1.50376605987548828 1.40162384510040283 0.641953587532043457
1.47957944869995117 -1.18021810054779053 0.628139853477478027
0.779714465141296387 -2.18369412422180176 0.431723892688751221
1.50148177146911621 1.94573187828063965 0.699072420597076416
-1.28865373134613037 2.27064895629882812 0.627264857292175293
0.925072252750396729 -2.21261334419250488 0.413885295391082764
-0.825858056545257568 2.88840770721435547 0.72290194034576416
0.0424244999885559082 1.90928030014038086 0.664979219436645508
