ply
format ascii 1.0
element vertex 256
comment vertices
property float x
property float y
property float z
end_header
-2.82293367385864258 -1.23956608772277832 0.443249881267547607
1.24220716953277588 3.01849174499511719 0.760931968688964844
-2.0287635326385498 1.1049569845199585 0.829906880855560303
2.45028471946716309 -3.16184878349304199 0.83594280481338501
1.02964961528778076 -0.649442017078399658 0.499433428049087524
1.34540736675262451 -4.38250160217285156 0.771331906318664551
-0.968055009841918945 4.38365077972412109 0.838625609874725342
-1.49973499774932861 0.80083078145980835 0.439404457807540894
0.0760093331336975098 3.65363550186157227 0.529609858989715576
0.233933955430984497 -2.26725339889526367 0.545490086078643799
1.87465763092041016 1.65657782554626465 0.961564481258392334
1.8642810583114624 -1.53124523162841797 0.935956239700317383
-1.25175154209136963 -1.59716808795928955 0.64442896842956543
-1.57827293872833252 2.87121343612670898 0.557645738124847412
1.46128201484680176 -4.45099592208862305 0.774336159229278564
1.18861556053161621 -1.663421630859375 0.520879626274108887
-1.26419508457183838 -2.7928924560546875 0.624038577079772949
-2.00650763511657715 2.33400869369506836 0.803730010986328125
0.707024037837982178 2.48641347885131836 0.523980975151062012
-1.10673952102661133 -1.01612937450408936 1.02664387226104736
-1.12108492851257324 0.460399746894836426 0.561822772026062012
0.692528843879699707 2.49064898490905762 0.530958056449890137
-1.72035634517669678 1.0439985990524292 0.543285489082336426
1.48518168926239014 -1.14405012130737305 0.60995936393737793
0.176321417093276978 -1.69966971874237061 0.153654918074607849
-1.66298580169677734 -2.06476569175720215 0.683933019638061523
-1.22684383392333984 -2.64817261695861816 0.528169393539428711
0.951019346714019775 -4.05523061752319336 0.774694144725799561
1.26523363590240479 2.49191594123840332 0.716116487979888916
0.541796267032623291 -1.47272288799285889 0.549474120140075684
-0.529384911060333252 2.71547198295593262 0.714597046375274658
0.709240078926086426 2.47127056121826172 0.52265620231628418
-1.35650849342346191 3.84636616706848145 0.687549114227294922
-0.405060291290283203 -1.44430100917816162 0.70198899507522583
1.95734000205993652 -3.36090874671936035 0.906244814395904541
0.709284007549285889 2.50905466079711914 0.550572454929351807
0.155599683523178101 -3.13044095039367676 0.635577619075775146
0.506648600101470947 -1.78810226917266846 0.497079789638519287
-1.47723555564880371 0.75621265172958374 0.431394666433334351
0.687407910823822021 2.48516321182250977 0.533060193061828613
-1.63656806945800781 2.88741779327392578 0.571075439453125
-1.4908745288848877 -1.96240413188934326 0.578373730182647705
0.967737078666687012 -0.734914600849151611 0.4728965163230896
-0.840402543544769287 2.86983060836791992 0.715974032878875732
-1.45534980297088623 0.785617232322692871 0.466783225536346436
0.7063446044921875 2.45224237442016602 0.518528342247009277
-2.21428394317626953 2.68816947937011719 0.770069897174835205
0.731595814228057861 -2.8225252628326416 0.527560293674468994
1.90102851390838623 -1.5731654167175293 0.990201950073242188
0.159041151404380798 -0.343089640140533447 0.578351199626922607
-0.701710700988769531 0.40477299690246582 0.626146078109741211
-1.55556178092956543 2.85871386528015137 0.606034219264984131
0.730192899703979492 -4.67032766342163086 0.828170239925384521
-1.53602325916290283 0.775474190711975098 0.504414498805999756
-1.68823325634002686 4.0515742301940918 0.863141775131225586
0.792941451072692871 -2.32222652435302734 0.421691805124282837
2.4082188606262207 -2.77181482315063477 0.594937980175018311
0.0886976569890975952 0.144744709134101868 0.601801514625549316
1.26065289974212646 -1.82902956008911133 0.571526706218719482
-0.469970345497131348 -0.109811633825302124 0.558007121086120605
0.477280169725418091 1.30592083930969238 0.684901952743530273
0.590655922889709473 2.55550003051757812 0.534540414810180664
0.776275217533111572 -2.30675339698791504 0.43202635645866394
0.960541844367980957 1.04430651664733887 0.633983731269836426
-1.48102140426635742 0.800031900405883789 0.435121506452560425
0.691780686378479004 2.49046993255615234 0.529990136623382568
-1.50924813747406006 2.28395843505859375 0.670496463775634766
-1.18517756462097168 1.4493415355682373 0.587142705917358398
1.24820947647094727 3.03233122825622559 0.792954325675964355
-0.0418098121881484985 3.58449125289916992 0.780050039291381836
-1.45413088798522949 0.794572830200195312 0.434392869472503662
0.734267234802246094 2.48478126525878906 0.524241268634796143
-2.01497316360473633 -1.85687136650085449 0.67825627326965332
0.112395979464054108 -1.31474864482879639 0.52904975414276123
1.13193881511688232 -3.50625419616699219 0.593108475208282471
-1.24660956859588623 -1.58025431632995605 0.635229766368865967
-0.231304556131362915 3.18660902976989746 0.52606046199798584
0.956907033920288086 -2.1251823902130127 0.393880486488342285
-1.4733893871307373 2.30295634269714355 0.696872591972351074
0.88747936487197876 2.95830917358398438 0.567789375782012939
-2.05043530464172363 -0.719772458076477051 0.681657254695892334
-1.4771653413772583 0.800932884216308594 0.444077670574188232
0.919686973094940186 -1.02400779724121094 0.536027789115905762
-1.27266514301300049 -2.76773786544799805 0.659894883632659912
0.959471225738525391 -4.11878299713134766 0.621554136276245117
0.961098909378051758 -0.711753606796264648 0.450763314962387085
1.43036842346191406 2.21269083023071289 0.809200406074523926
-0.154843628406524658 3.61953020095825195 0.776297330856323242
-1.58005189895629883 -2.04831171035766602 0.594475209712982178
1.57239294052124023 -0.711683571338653564 0.643469095230102539
0.250696688890457153 -1.77083253860473633 0.268275797367095947
-1.60752201080322266 2.86852288246154785 0.587863624095916748
1.64441680908203125 -1.85821402072906494 0.716386258602142334
-0.749816834926605225 0.825103938579559326 0.54531252384185791
-2.29814362525939941 0.7071877121925354 0.773005902767181396
0.541682600975036621 -1.47855746746063232 0.542720913887023926
-1.10924732685089111 4.34948873519897461 0.676669716835021973
0.48996049165725708 3.05139923095703125 0.659741818904876709
-1.44973063468933105 -1.42530059814453125 0.543973267078399658
0.979659557342529297 -4.01415395736694336 0.669553458690643311
0.840494751930236816 -2.09421730041503906 0.524924516677856445
0.97563779354095459 -0.737534642219543457 0.470783531665802002
0.784850001335144043 -2.28264713287353516 0.37788739800453186
1.24938702583312988 2.92283940315246582 0.747059226036071777
1.97533643245697021 -3.35479855537414551 1.01029908657073975
-0.623793303966522217 2.0319666862487793 0.657074928283691406
-1.50977659225463867 1.41572344303131104 0.636804282665252686
0.693816483020782471 2.48951005935668945 0.531073570251464844
1.46455502510070801 1.95671343803405762 0.720255017280578613
1.98676145076751709 -2.42483401298522949 0.800148367881774902
-1.31912171840667725 -1.70721948146820068 0.656806528568267822
-0.726975142955780029 0.142409592866897583 0.630714178085327148
-1.48373281955718994 2.35092020034790039 0.714049637317657471
0.0443317294120788574 1.94436311721801758 0.691483020782470703
0.535879790782928467 -4.17028188705444336 0.828279078006744385
-1.32587742805480957 -1.87508666515350342 0.66427534818649292
0.0308880582451820374 3.26586508750915527 0.752484798431396484
0.712990164756774902 2.48573708534240723 0.524963021278381348
0.924585402011871338 -0.235956460237503052 0.643379628658294678
0.531204581260681152 -1.47546029090881348 0.529917001724243164
1.52646374702453613 -2.38325643539428711 0.606221139430999756
1.50023782253265381 1.95273745059967041 0.766886472702026367
-2.3083951473236084 0.721036791801452637 0.727407991886138916
-1.67833149433135986 4.08488178253173828 0.876128673553466797
-1.25121128559112549 -2.81260013580322266 0.614472687244415283
0.485873579978942871 -3.48540806770324707 0.818824172019958496
-1.52171778678894043 -1.95882833003997803 0.57864224910736084
1.8935164213180542 -3.01137042045593262 0.913350462913513184
0.81918036937713623 -1.68981754779815674 0.427499443292617798
-1.62731945514678955 0.115256398916244507 0.516040265560150146
1.25745916366577148 2.4901726245880127 0.728874444961547852
1.91389131546020508 -1.83988857269287109 0.782186985015869141
0.668811917304992676 -1.13892662525177002 0.527951300144195557
0.771624743938446045 -2.29784059524536133 0.426850199699401855
1.46724927425384521 -2.48619437217712402 0.54495471715927124
0.0417645275592803955 2.71419429779052734 0.702791988849639893
-1.57575631141662598 2.87277030944824219 0.559535384178161621
-1.21645569801330566 3.69588041305541992 0.702812254428863525
-1.59547185897827148 2.86024951934814453 0.558088123798370361
0.945304155349731445 -0.807478070259094238 0.491239309310913086
-2.69526839256286621 -1.46703124046325684 0.430424660444259644
-1.5755234956741333 2.87523078918457031 0.557516157627105713
0.73331606388092041 -2.80701708793640137 0.495446890592575073
1.16020750999450684 -2.53302407264709473 0.59232938289642334
1.53559315204620361 -3.71706438064575195 0.682532548904418945
1.78142356872558594 3.05756759643554688 0.655427694320678711
-2.24613499641418457 2.63539576530456543 0.734990954399108887
0.722745358943939209 -2.80575919151306152 0.520223140716552734
0.310308098793029785 2.53542804718017578 0.540159165859222412
-1.63331902027130127 -2.01920104026794434 0.635337889194488525
0.00175401568412780762 2.65270853042602539 0.69974052906036377
-1.29060077667236328 3.65593361854553223 0.599977612495422363
-1.46869325637817383 0.797203183174133301 0.444091945886611938
0.681304275989532471 2.32286357879638672 0.612631440162658691
0.943267643451690674 1.03779518604278564 0.593866944313049316
0.693347573280334473 2.49382305145263672 0.529000818729400635
-1.49246025085449219 0.77068406343460083 0.463919907808303833
-1.4617927074432373 0.766817688941955566 0.574315130710601807
-1.58397483825683594 2.85246491432189941 0.550742089748382568
0.0330945476889610291 1.95328521728515625 0.689009189605712891
-1.39665365219116211 0.765085279941558838 0.655195891857147217
0.763150930404663086 -2.30039334297180176 0.425477027893066406
-1.58627724647521973 -0.881975829601287842 0.66266554594039917
-0.831733822822570801 2.86332583427429199 0.716441988945007324
-1.74495625495910645 3.02608013153076172 0.633543431758880615
1.24815750122070312 3.03292179107666016 0.793187439441680908
-1.53289997577667236 1.39974641799926758 0.624360442161560059
-1.53264546394348145 -1.99244427680969238 0.568407833576202393
0.156726717948913574 -0.344781428575515747 0.575397849082946777
0.678103089332580566 3.02281928062438965 0.583402454853057861
1.24688541889190674 3.02535080909729004 0.766684770584106445
-0.50458526611328125 1.2922813892364502 0.579845428466796875
0.0582809969782829285 3.37955665588378906 0.729666590690612793
-2.2232062816619873 2.68882536888122559 0.772552013397216797
0.958473324775695801 1.04982936382293701 0.633508801460266113
0.125602066516876221 2.9070746898651123 0.509431302547454834
0.398379385471343994 -4.78287792205810547 0.753802239894866943
0.960193216800689697 -0.736762464046478271 0.478708446025848389
0.698930323123931885 2.51468348503112793 0.53189772367477417
1.26530277729034424 -3.6618499755859375 0.720073997974395752
1.54070138931274414 -1.75669848918914795 0.69168621301651001
-1.16746068000793457 -1.2461012601852417 0.551850795745849609
1.58785581588745117 -0.700956404209136963 0.648084878921508789
0.0442422404885292053 3.14828681945800781 0.740553140640258789
0.768218338489532471 3.0906367301940918 0.377614676952362061
0.34093773365020752 -0.973760128021240234 0.647588253021240234
-0.743732094764709473 0.819589018821716309 0.553787410259246826
-1.24356317520141602 -2.59493517875671387 0.521621108055114746
0.961447238922119141 1.04355859756469727 0.635666847229003906
1.93023180961608887 -1.84075987339019775 0.928218245506286621
1.51498997211456299 -2.35968279838562012 0.600548624992370605
0.963305771350860596 -0.733089029788970947 0.472648888826370239
-1.50842320919036865 2.28730535507202148 0.668054759502410889
-1.42627131938934326 -1.86429858207702637 0.590325117111206055
-1.48173332214355469 0.799573242664337158 0.435779780149459839
0.73418736457824707 2.49971556663513184 0.543931245803833008
-1.45994412899017334 0.781572878360748291 0.47796282172203064
-0.955268919467926025 4.37446451187133789 0.842529058456420898
0.233875691890716553 -2.26892304420471191 0.548483371734619141
-3.21828126907348633 -1.21643173694610596 0.236495643854141235
0.575570523738861084 -0.968787193298339844 0.442482531070709229
-1.59063339233398438 2.85908079147338867 0.553690135478973389
-2.23384499549865723 2.68250393867492676 0.770430684089660645
-1.26046323776245117 -2.78763914108276367 0.605737805366516113
2.42400765419006348 -2.92750167846679688 0.784239888191223145
0.774986207485198975 -2.31303262710571289 0.418881058692932129
-1.06614303588867188 0.271078228950500488 0.703921318054199219
0.0172361433506011963 2.60976147651672363 0.6725577712059021
1.62507283687591553 -1.8411257266998291 0.656818032264709473
0.0196310505270957947 2.16795086860656738 0.628249406814575195
-1.69571876525878906 4.06003189086914062 0.895267188549041748
1.48022961616516113 -1.20856916904449463 0.619535326957702637
0.969616293907165527 -0.78371429443359375 0.449585527181625366
-1.54053986072540283 -2.00066089630126953 0.6092681884765625
-1.11349737644195557 2.30678677558898926 0.64332890510559082
-1.28433775901794434 1.05649042129516602 0.551099777221679688
0.0223848894238471985 2.4696650505065918 0.685821652412414551
0.955927908420562744 -3.82114815711975098 0.696461737155914307
1.5584026575088501 -2.00148248672485352 0.67565453052520752
0.925441324710845947 -0.233447432518005371 0.645113527774810791
-1.2894284725189209 -2.80513954162597656 0.570710659027099609
-1.53229153156280518 -2.00990581512451172 0.661766290664672852
0.428940296173095703 3.07944893836975098 0.588828444480895996
0.711050987243652344 2.47064709663391113 0.522321164608001709
1.48875868320465088 -1.10768508911132812 0.62634199857711792
-0.626952409744262695 1.35595118999481201 0.600661158561706543
0.328514635562896729 -2.28449749946594238 0.508176803588867188
1.03847944736480713 -3.49889755249023438 0.687502622604370117
1.0058366060256958 -1.85652995109558105 0.238538697361946106
1.25330269336700439 2.4881432056427002 0.726336896419525146
-2.30946636199951172 0.720157980918884277 0.728755474090576172
-1.52833616733551025 0.770726799964904785 0.419663012027740479
1.48799502849578857 1.95941329002380371 0.753218650817871094
0.548456370830535889 -1.47969901561737061 0.545288562774658203
0.964449644088745117 -0.737578988075256348 0.474337965250015259
-1.51261770725250244 2.28199028968811035 0.667018115520477295
-2.08725309371948242 2.43595409393310547 0.61427539587020874
0.730748832225799561 -2.81427621841430664 0.536154568195343018
0.540739893913269043 -4.17551851272583008 0.81744992733001709
-2.09078025817871094 1.93665242195129395 0.867410242557525635
-0.845496773719787598 2.87412548065185547 0.713712215423583984
-1.25957274436950684 1.846488356590271 0.603280961513519287
0.235044226050376892 -2.27128386497497559 0.550086617469787598
-1.47275614738464355 -1.88396000862121582 0.562462389469146729
0.478716462850570679 0.130265861749649048 0.609582960605621338
0.707540690898895264 2.37092924118041992 0.603387892246246338
0.972714602947235107 -0.764366745948791504 0.435676306486129761
-1.42248356342315674 -1.95279192924499512 0.643589496612548828
-1.52858495712280273 1.39881432056427002 0.6286887526512146
1.47929823398590088 -1.1622849702835083 0.620437026023864746
0.782583177089691162 -2.32855081558227539 0.432294666767120361
1.5019385814666748 1.95260941982269287 0.757557272911071777
-1.5000842809677124 2.28668379783630371 0.662622690200805664
0.77252572774887085 -2.30814647674560547 0.435955017805099487
-0.841236233711242676 2.87052083015441895 0.713839113712310791
0.0433898493647575378 1.94409263134002686 0.690186619758605957
